<?xml version="1.0" standalone="no"?>
<!DOCTYPE svg PUBLIC "-//W3C//DTD SVG 20010904//EN"
 "http://www.w3.org/TR/2001/REC-SVG-20010904/DTD/svg10.dtd">
<svg version="1.0" xmlns="http://www.w3.org/2000/svg"
 width="425.000000pt" height="425.000000pt" viewBox="0 0 425.000000 425.000000"
 preserveAspectRatio="xMidYMid meet">
<metadata>
Created by potrace 1.11, written by Peter Selinger 2001-2013
</metadata>
<g transform="translate(0.000000,425.000000) scale(0.100000,-0.100000)"
fill="#000000" stroke="none">
<path d="M1090 4087 c-34 -19 -488 -474 -504 -506 -7 -14 -12 -35 -11 -46 1
-11 2 -32 3 -47 1 -20 22 -49 70 -97 l68 -69 -54 -58 c-128 -137 -165 -199
-165 -270 l1 -51 -70 -5 c-59 -5 -74 -10 -99 -34 -16 -16 -32 -39 -36 -51 -5
-23 -6 -22 -22 9 -30 59 -60 72 -169 73 l-97 1 0 -388 c0 -212 3 -389 6 -392
3 -3 33 0 68 6 l62 12 -2 138 c-1 76 1 141 4 145 4 3 7 -58 7 -137 l0 -143 48
7 48 6 33 -92 c19 -51 39 -104 44 -118 6 -14 11 -31 13 -39 6 -30 22 -28 104
12 149 73 274 127 295 127 7 0 18 -15 25 -32 7 -18 18 -46 25 -63 7 -16 25
-59 40 -95 15 -36 56 -124 91 -197 35 -72 64 -135 64 -138 0 -17 -93 -94 -126
-105 -78 -25 -119 -85 -112 -162 12 -116 128 -181 233 -131 27 13 43 33 72 90
21 40 44 75 51 78 7 2 28 -20 50 -56 20 -34 42 -66 47 -73 6 -6 32 -45 59 -86
27 -41 62 -91 77 -111 l29 -37 0 -271 c0 -304 -7 -280 75 -261 76 17 203 38
280 47 28 2 53 6 56 6 3 1 50 -37 105 -85 135 -118 289 -238 307 -238 8 0 23
8 35 17 11 10 36 29 54 43 59 45 222 183 263 222 40 39 40 39 106 34 57 -5
199 -27 269 -42 65 -14 90 -16 91 -8 0 5 2 128 3 274 l1 265 79 110 c43 61 89
129 103 152 l25 43 31 -48 c45 -66 102 -90 170 -71 35 9 88 53 106 87 44 82 3
177 -94 217 -81 34 -81 32 -14 166 77 155 113 233 160 349 21 52 42 96 48 98
5 2 30 -6 55 -17 25 -12 47 -21 49 -21 3 0 58 -25 123 -56 65 -30 122 -56 127
-57 5 -1 31 57 57 128 27 72 54 129 59 128 6 -2 12 15 13 40 l1 42 4 -38 c5
-42 17 -50 93 -60 l45 -6 0 347 c-1 466 19 438 -309 441 l-78 1 6 34 c5 28 1
45 -26 88 -63 104 -109 164 -197 260 l-43 47 31 31 c17 17 38 41 46 53 19 27
19 100 1 135 -18 32 -472 485 -503 501 -60 30 -127 5 -206 -78 -52 -54 -85
-121 -71 -143 3 -5 -27 7 -66 27 -148 74 -370 150 -500 171 -162 25 -349 -3
-560 -83 -152 -58 -180 -70 -270 -114 -87 -43 -97 -45 -112 -31 -10 8 -18 28
-18 43 0 15 -4 38 -9 51 -12 31 -111 132 -149 152 -38 19 -88 20 -122 3z
m-940 -1359 c0 -50 -3 -89 -6 -86 -9 10 -8 178 1 178 3 0 5 -41 5 -92z m280
66 c0 -14 -4 -23 -9 -19 -11 6 -10 45 1 45 4 0 8 -12 8 -26z m3535 -11 c2 -36
-1 -38 -39 -24 -16 7 -23 16 -21 28 2 10 4 22 4 26 1 5 13 7 28 5 22 -2 27 -8
28 -35z m145 -35 c0 -39 -3 -68 -7 -65 -3 4 -6 23 -5 42 0 19 1 49 1 65 1 17
3 30 6 30 3 0 5 -32 5 -72z"/>
</g>
</svg>
